<?xml version="1.0" standalone="no"?>
<!DOCTYPE svg PUBLIC "-//W3C//DTD SVG 1.1//EN" "http://www.w3.org/Graphics/SVG/1.1/DTD/svg11.dtd" >
<svg xmlns="http://www.w3.org/2000/svg" xmlns:xlink="http://www.w3.org/1999/xlink" version="1.1">
<metadata></metadata>
<defs>
<font id="begokregular" horiz-adv-x="1862" >
<font-face units-per-em="2048" ascent="1638" descent="-410" />
<missing-glyph horiz-adv-x="508" />
<glyph horiz-adv-x="0" />
<glyph unicode="&#xd;" horiz-adv-x="508" />
<glyph unicode=" "  horiz-adv-x="508" />
<glyph unicode="&#x09;" horiz-adv-x="508" />
<glyph unicode="&#xa0;" horiz-adv-x="508" />
<glyph unicode="!" horiz-adv-x="390" />
<glyph unicode="&#x22;" horiz-adv-x="672" />
<glyph unicode="#" horiz-adv-x="1748" />
<glyph unicode="$" />
<glyph unicode="%" horiz-adv-x="1692" />
<glyph unicode="&#x26;" horiz-adv-x="1683" />
<glyph unicode="'" horiz-adv-x="346" />
<glyph unicode="(" horiz-adv-x="1104" />
<glyph unicode=")" horiz-adv-x="1104" />
<glyph unicode="*" horiz-adv-x="517" />
<glyph unicode="+" horiz-adv-x="1532" />
<glyph unicode="," horiz-adv-x="390" />
<glyph unicode="-" horiz-adv-x="1097" />
<glyph unicode="." horiz-adv-x="390" />
<glyph unicode="/" horiz-adv-x="1204" />
<glyph unicode="0" horiz-adv-x="1867" />
<glyph unicode="1" horiz-adv-x="1090" />
<glyph unicode="2" />
<glyph unicode="3" />
<glyph unicode="4" />
<glyph unicode="5" />
<glyph unicode="6" />
<glyph unicode="7" horiz-adv-x="1867" />
<glyph unicode="8" />
<glyph unicode="9" />
<glyph unicode=":" horiz-adv-x="390" />
<glyph unicode=";" horiz-adv-x="390" />
<glyph unicode="&#x3c;" horiz-adv-x="1099" />
<glyph unicode="=" horiz-adv-x="1534" />
<glyph unicode="&#x3e;" horiz-adv-x="1099" />
<glyph unicode="?" />
<glyph unicode="@" horiz-adv-x="1867" />
<glyph unicode="A" horiz-adv-x="1540" />
<glyph unicode="B" horiz-adv-x="1219" />
<glyph unicode="C" horiz-adv-x="1399" />
<glyph unicode="D" horiz-adv-x="1518" />
<glyph unicode="E" horiz-adv-x="1151" />
<glyph unicode="F" horiz-adv-x="1079" />
<glyph unicode="G" horiz-adv-x="1479" />
<glyph unicode="H" horiz-adv-x="1579" />
<glyph unicode="I" horiz-adv-x="657" />
<glyph unicode="J" horiz-adv-x="657" />
<glyph unicode="K" horiz-adv-x="1382" />
<glyph unicode="L" horiz-adv-x="1128" />
<glyph unicode="M" horiz-adv-x="1798" />
<glyph unicode="N" horiz-adv-x="1554" />
<glyph unicode="O" horiz-adv-x="1614" />
<glyph unicode="P" horiz-adv-x="1120" />
<glyph unicode="Q" horiz-adv-x="1614" />
<glyph unicode="R" horiz-adv-x="1283" />
<glyph unicode="S" horiz-adv-x="1085" />
<glyph unicode="T" horiz-adv-x="1350" />
<glyph unicode="U" horiz-adv-x="1501" />
<glyph unicode="V" horiz-adv-x="1456" />
<glyph unicode="W" horiz-adv-x="2030" />
<glyph unicode="X" horiz-adv-x="1350" />
<glyph unicode="Y" horiz-adv-x="1233" />
<glyph unicode="Z" horiz-adv-x="1124" />
<glyph unicode="[" horiz-adv-x="758" />
<glyph unicode="\" horiz-adv-x="569" />
<glyph unicode="]" horiz-adv-x="758" />
<glyph unicode="^" horiz-adv-x="1014" />
<glyph unicode="_" horiz-adv-x="1534" />
<glyph unicode="`" horiz-adv-x="1024" />
<glyph unicode="a" horiz-adv-x="1867" d="M0 550v328q0 308 275 493q112 63 222 63h773q289 0 455 -339q42 -114 42 -217v-867q0 -11 -10 -11h-275q-11 0 -11 11v37h-5q-103 -48 -175 -48h-815q-226 0 -402 270q-74 141 -74 280zM296 487q0 -124 175 -191h794q150 0 206 180v455q0 153 -180 201q-5 6 -42 6h-730 q-180 0 -223 -191v-460z" />
<glyph unicode="b" horiz-adv-x="1864" d="M0 555v1082q2 11 11 11h274q11 -2 11 -11v-253h5q93 53 248 53h666q368 0 512 -359q37 -92 37 -212v-311q0 -341 -333 -523q-104 -32 -169 -32h-760q-319 0 -476 380q-26 98 -26 175zM296 502q34 -206 227 -206h718q164 0 222 164q5 20 5 42v428q0 147 -174 206h-792 q-148 0 -206 -175v-459z" />
<glyph unicode="c" d="M0 550v328q0 308 275 493q112 63 222 63h773q268 0 434 -296q58 -131 58 -191l-11 -5h-269q-6 0 -48 106q-78 90 -185 90h-730q-180 0 -223 -191v-460q0 -124 175 -191h794q149 0 206 180q2 11 11 11h269q11 -2 11 -11q-28 -172 -127 -286q-160 -190 -344 -190h-815 q-226 0 -402 270q-74 141 -74 280z" />
<glyph unicode="d" horiz-adv-x="1861" d="M0 554v326q0 295 264 480q105 74 284 74h665q147 0 253 -53v253q1 11 10 11h274q11 -2 11 -11v-1080q0 -340 -332 -522q-104 -32 -169 -32h-759q-295 0 -459 337q-42 114 -42 217zM295 501q34 -206 227 -206h717q164 0 221 164q6 20 6 42v427q0 144 -164 200 q-44 11 -116 11h-611q-193 0 -248 -106q-32 -52 -32 -89v-443z" />
<glyph unicode="e" d="M0 550v328q0 308 275 493q112 63 222 63h773q294 0 460 -349q32 -108 32 -154v-270q0 -10 -11 -10h-862q-11 0 -11 10v276q2 10 11 10h582q-47 191 -222 191h-730q-180 0 -223 -191v-460q0 -124 175 -191h794q149 0 206 180q2 11 11 11h269q11 -2 11 -11 q-28 -172 -127 -286q-160 -190 -344 -190h-815q-226 0 -402 270q-74 141 -74 280z" />
<glyph unicode="f" horiz-adv-x="1867" d="M0 11v867q0 308 275 493q112 63 222 63h1260q10 -2 10 -11v-275q0 -10 -10 -10h-1238q-177 0 -223 -191h609q10 -1 10 -10v-276q0 -10 -10 -10h-466q-143 -17 -143 -127v-513q0 -11 -10 -11h-275q-11 0 -11 11z" />
<glyph unicode="g" horiz-adv-x="1857" d="M0 556v326q0 305 274 489q111 63 220 63h768q288 0 453 -337q42 -114 42 -215v-758q0 -339 -332 -520q-100 -32 -168 -32h-368q-11 0 -11 11v273q2 11 11 11h347q160 0 216 152q10 27 10 37q-106 -53 -284 -53h-599q-305 0 -442 184q-137 169 -137 369zM295 492 q0 -123 173 -189h789q118 0 184 121q21 39 21 84v426q0 152 -179 200q-5 5 -42 5h-726q-178 0 -220 -189v-458z" />
<glyph unicode="h" horiz-adv-x="1868" d="M0 11v1598q2 11 11 11h275q10 -2 10 -11v-227q98 53 202 53h773q290 0 455 -339q42 -115 42 -217v-868q0 -11 -10 -11h-276q-10 0 -10 11v921q0 145 -170 201q-27 5 -53 5h-730q-180 0 -223 -190v-937q0 -11 -10 -11h-275q-11 0 -11 11z" />
<glyph unicode="i" horiz-adv-x="390" d="M0 11v1413q2 10 11 10h268q11 -1 11 -10v-1413q0 -11 -11 -11h-268q-11 0 -11 11zM0 1534v274q2 11 11 11h268q11 -2 11 -11v-274q0 -10 -11 -10h-268q-11 0 -11 10z" />
<glyph unicode="j" horiz-adv-x="1867" d="M0 545l11 5h269q9 0 27 -122q75 -132 196 -132h756q158 0 206 175q6 5 6 42v910q1 11 10 11h275q11 -2 11 -11v-846q0 -402 -376 -561q-66 -16 -116 -16h-799q-220 0 -402 264q-74 150 -74 281z" />
<glyph unicode="k" horiz-adv-x="1857" d="M0 11v1637h285q11 -2 11 -11v-880l1456 677l5 -10v-307q-76 -46 -767 -365v-6q537 -515 757 -741v-5h-413q-513 501 -635 614l-403 -180v-423q0 -11 -10 -11h-275q-11 0 -11 11z" />
<glyph unicode="l" horiz-adv-x="1867" d="M0 550v873q2 11 11 11h275q10 -2 10 -11v-936q0 -124 175 -191h1286q10 -1 10 -10v-275q0 -11 -10 -11h-1281q-226 0 -402 270q-74 141 -74 280z" />
<glyph unicode="m" horiz-adv-x="2878" d="M0 11v867q0 308 275 493q112 63 222 63h540q193 0 355 -169q155 169 349 169h540q307 0 471 -370q26 -106 26 -164v-889q0 -11 -10 -11h-270q-11 0 -11 11v883q0 173 -148 233q-50 11 -79 11h-498q-168 0 -222 -175q0 -32 -5 -32q5 -62 5 -90v-830q0 -11 -11 -11h-275 q-10 0 -10 11v910q0 152 -170 211q-28 6 -47 6h-508q-180 0 -223 -191v-936q0 -11 -10 -11h-275q-11 0 -11 11z" />
<glyph unicode="n" horiz-adv-x="1878" d="M0 11v868q0 307 275 492q112 63 222 63h773q289 0 455 -338q43 -115 43 -217v-868q0 -11 -11 -11h-275q-11 0 -11 11v920q0 153 -180 202q-5 5 -42 5h-730q-180 0 -223 -191v-936q0 -11 -10 -11h-275q-11 0 -11 11z" />
<glyph unicode="o" horiz-adv-x="1868" d="M0 550v329q0 307 275 492q112 63 223 63h772q290 0 455 -338q43 -115 43 -217v-323q0 -311 -275 -492q-108 -64 -202 -64h-815q-226 0 -402 270q-74 141 -74 280zM296 487q0 -124 175 -191h794q151 0 206 180v456q0 154 -180 201q-5 5 -42 5h-730q-180 0 -223 -191v-460z " />
<glyph unicode="p" horiz-adv-x="1861" d="M0 -201v1081q0 307 274 491q112 63 222 63h770q288 0 453 -338q42 -114 42 -216v-321q0 -339 -327 -523q-99 -36 -253 -36h-601q-178 0 -285 52v-253q0 -10 -10 -10h-274q-11 0 -11 10zM295 490q0 -124 174 -190h791q150 0 206 179v454q0 152 -179 200q-6 6 -43 6h-727 q-179 0 -222 -190v-459z" />
<glyph unicode="q" horiz-adv-x="1861" d="M0 559v321q0 102 42 216q165 338 454 338h770q110 0 221 -63q274 -184 274 -491v-1081q0 -10 -10 -10h-274q-11 0 -11 10v253q-106 -52 -285 -52h-601q-154 0 -253 36q-327 184 -327 523zM295 479q56 -179 206 -179h791q174 66 174 190v459q-43 190 -222 190h-727 q-37 0 -42 -6q-180 -48 -180 -200v-454z" />
<glyph unicode="r" horiz-adv-x="1867" d="M0 11v867q0 308 275 493q112 63 222 63h1260q10 -2 10 -11v-275q0 -10 -10 -10h-1238q-180 0 -223 -191v-936q0 -11 -10 -11h-275q-11 0 -11 11z" />
<glyph unicode="s" d="M0 11v275q2 10 11 10h1338q148 18 148 127v21q0 105 -142 122h-926q-302 0 -418 328q-11 50 -11 80v42q0 280 317 407q72 11 90 11h1344q11 -2 11 -11v-275q0 -10 -11 -10h-1312q-135 0 -169 -90q0 -10 -11 -43q27 -137 127 -137h916q347 0 449 -339q11 -42 11 -90v-5 q0 -288 -291 -413q-62 -21 -111 -21h-1349q-11 0 -11 11z" />
<glyph unicode="t" horiz-adv-x="1861" d="M0 1149v274q2 11 11 11h1739q11 -2 11 -11v-274q0 -10 -11 -10h-722v-1128q0 -11 -10 -11h-275q-10 0 -10 11v1128h-722q-11 0 -11 10z" />
<glyph unicode="u" horiz-adv-x="1867" d="M0 550v873q2 11 11 11h275q10 -2 10 -11v-936q0 -124 175 -191h794q150 0 206 180v947q2 11 11 11h275q10 -2 10 -11v-867q0 -311 -275 -493q-108 -63 -201 -63h-815q-226 0 -402 270q-74 141 -74 280z" />
<glyph unicode="v" d="M0 1428l11 6h301q15 -5 392 -762q157 -313 169 -318q5 0 5 -5q29 0 138 244q18 24 428 841h318q-85 -183 -677 -1349q-85 -85 -191 -85h-21q-189 0 -265 227z" />
<glyph unicode="w" horiz-adv-x="2878" d="M0 550v874q2 10 11 10h275q10 -2 10 -10v-937q0 -124 175 -191h561q144 0 206 164q6 37 6 59v905q1 10 10 10h275q11 -2 11 -10v-831q0 -31 -5 -85q0 -145 169 -206q20 -6 42 -6h530q144 0 206 170q5 45 5 74v884q2 10 11 10h270q10 -2 10 -10v-884q0 -305 -296 -492 q-107 -48 -180 -48h-582q-166 0 -334 169q-64 -80 -158 -127q-94 -42 -180 -42h-572q-226 0 -402 270q-74 141 -74 280z" />
<glyph unicode="x" horiz-adv-x="1857" d="M0 0v5l677 715q-84 79 -677 709v5h392l486 -503l487 503h392v-5q-87 -97 -678 -715q53 -47 678 -709v-5h-392q-5 0 -487 503l-481 -503h-397z" />
<glyph unicode="y" horiz-adv-x="1861" d="M0 554v869q2 11 11 11h274q10 -2 10 -11v-922q0 -151 180 -201q19 -5 47 -5h717q193 0 227 206v922q1 11 10 11h274q11 -2 11 -11v-1291q0 -369 -343 -538q-86 -32 -195 -32h-332q-10 0 -10 11v274q1 11 10 11h301q174 0 232 89q42 67 42 106q-105 -53 -206 -53h-759 q-295 0 -459 337q-42 114 -42 217z" />
<glyph unicode="z" d="M0 418v26q0 292 328 413q79 11 132 11h900q137 18 137 122v21q0 112 -158 127h-1328q-11 0 -11 10v275q2 11 11 11h1328q272 0 402 -291q21 -71 21 -143v-5q0 -294 -323 -418q-75 -11 -106 -11h-926q-142 -13 -142 -127q-6 0 -6 -5q0 -121 154 -138h1338q11 -1 11 -10 v-275q0 -11 -11 -11h-1338q-264 0 -392 291q-21 62 -21 127z" />
<glyph unicode="{" horiz-adv-x="1014" />
<glyph unicode="|" horiz-adv-x="1014" />
<glyph unicode="}" horiz-adv-x="1014" />
<glyph unicode="~" horiz-adv-x="1014" />
<glyph unicode="&#xa1;" horiz-adv-x="390" />
<glyph unicode="&#xa2;" horiz-adv-x="1139" />
<glyph unicode="&#xa3;" horiz-adv-x="1014" />
<glyph unicode="&#xa4;" horiz-adv-x="1014" />
<glyph unicode="&#xa5;" horiz-adv-x="1262" />
<glyph unicode="&#xa6;" horiz-adv-x="1014" />
<glyph unicode="&#xa7;" horiz-adv-x="1014" />
<glyph unicode="&#xa8;" horiz-adv-x="1024" />
<glyph unicode="&#xa9;" horiz-adv-x="1674" />
<glyph unicode="&#xaa;" horiz-adv-x="648" />
<glyph unicode="&#xab;" horiz-adv-x="944" />
<glyph unicode="&#xac;" horiz-adv-x="1014" />
<glyph unicode="&#xad;" horiz-adv-x="1097" />
<glyph unicode="&#xae;" horiz-adv-x="1674" />
<glyph unicode="&#xaf;" horiz-adv-x="670" />
<glyph unicode="&#xb0;" horiz-adv-x="674" />
<glyph unicode="&#xb1;" horiz-adv-x="1014" />
<glyph unicode="&#xb2;" horiz-adv-x="1014" />
<glyph unicode="&#xb3;" horiz-adv-x="1014" />
<glyph unicode="&#xb4;" horiz-adv-x="1024" />
<glyph unicode="&#xb5;" horiz-adv-x="1180" />
<glyph unicode="&#xb6;" horiz-adv-x="1024" />
<glyph unicode="&#xb7;" horiz-adv-x="508" />
<glyph unicode="&#xb8;" horiz-adv-x="1024" />
<glyph unicode="&#xb9;" horiz-adv-x="1014" />
<glyph unicode="&#xba;" horiz-adv-x="718" />
<glyph unicode="&#xbb;" horiz-adv-x="944" />
<glyph unicode="&#xbc;" horiz-adv-x="1708" />
<glyph unicode="&#xbd;" horiz-adv-x="1964" />
<glyph unicode="&#xbe;" horiz-adv-x="1708" />
<glyph unicode="&#xbf;" />
<glyph unicode="&#xc0;" horiz-adv-x="1540" />
<glyph unicode="&#xc1;" horiz-adv-x="1540" />
<glyph unicode="&#xc2;" horiz-adv-x="1540" />
<glyph unicode="&#xc3;" horiz-adv-x="1540" />
<glyph unicode="&#xc4;" horiz-adv-x="1540" />
<glyph unicode="&#xc5;" horiz-adv-x="1540" />
<glyph unicode="&#xc6;" horiz-adv-x="2118" />
<glyph unicode="&#xc7;" horiz-adv-x="1399" />
<glyph unicode="&#xc8;" horiz-adv-x="1151" />
<glyph unicode="&#xc9;" horiz-adv-x="1151" />
<glyph unicode="&#xca;" horiz-adv-x="1151" />
<glyph unicode="&#xcb;" horiz-adv-x="1151" />
<glyph unicode="&#xcc;" horiz-adv-x="657" />
<glyph unicode="&#xcd;" horiz-adv-x="657" />
<glyph unicode="&#xce;" horiz-adv-x="657" />
<glyph unicode="&#xcf;" horiz-adv-x="657" />
<glyph unicode="&#xd0;" horiz-adv-x="1518" />
<glyph unicode="&#xd1;" horiz-adv-x="1554" />
<glyph unicode="&#xd2;" horiz-adv-x="1614" />
<glyph unicode="&#xd3;" horiz-adv-x="1614" />
<glyph unicode="&#xd4;" horiz-adv-x="1614" />
<glyph unicode="&#xd5;" horiz-adv-x="1614" />
<glyph unicode="&#xd6;" horiz-adv-x="1614" />
<glyph unicode="&#xd7;" horiz-adv-x="1014" />
<glyph unicode="&#xd8;" horiz-adv-x="1614" />
<glyph unicode="&#xd9;" horiz-adv-x="1501" />
<glyph unicode="&#xda;" horiz-adv-x="1501" />
<glyph unicode="&#xdb;" horiz-adv-x="1501" />
<glyph unicode="&#xdc;" horiz-adv-x="1501" />
<glyph unicode="&#xdd;" horiz-adv-x="1233" />
<glyph unicode="&#xde;" horiz-adv-x="1120" />
<glyph unicode="&#xdf;" horiz-adv-x="1251" />
<glyph unicode="&#xe0;" horiz-adv-x="922" />
<glyph unicode="&#xe1;" horiz-adv-x="1867" />
<glyph unicode="&#xe2;" horiz-adv-x="922" />
<glyph unicode="&#xe3;" horiz-adv-x="922" />
<glyph unicode="&#xe4;" horiz-adv-x="922" />
<glyph unicode="&#xe5;" horiz-adv-x="922" />
<glyph unicode="&#xe6;" horiz-adv-x="1454" />
<glyph unicode="&#xe7;" horiz-adv-x="905" />
<glyph unicode="&#xe8;" horiz-adv-x="909" />
<glyph unicode="&#xe9;" />
<glyph unicode="&#xea;" horiz-adv-x="909" />
<glyph unicode="&#xeb;" horiz-adv-x="909" />
<glyph unicode="&#xec;" horiz-adv-x="514" />
<glyph unicode="&#xed;" horiz-adv-x="390" />
<glyph unicode="&#xee;" horiz-adv-x="514" />
<glyph unicode="&#xef;" horiz-adv-x="514" />
<glyph unicode="&#xf0;" horiz-adv-x="1139" />
<glyph unicode="&#xf1;" horiz-adv-x="1868" />
<glyph unicode="&#xf2;" horiz-adv-x="1010" />
<glyph unicode="&#xf3;" horiz-adv-x="1868" />
<glyph unicode="&#xf4;" horiz-adv-x="1010" />
<glyph unicode="&#xf5;" horiz-adv-x="1010" />
<glyph unicode="&#xf6;" horiz-adv-x="1010" />
<glyph unicode="&#xf7;" horiz-adv-x="1014" />
<glyph unicode="&#xf8;" horiz-adv-x="1010" />
<glyph unicode="&#xf9;" horiz-adv-x="1059" />
<glyph unicode="&#xfa;" horiz-adv-x="1867" />
<glyph unicode="&#xfb;" horiz-adv-x="1059" />
<glyph unicode="&#xfc;" horiz-adv-x="1867" />
<glyph unicode="&#xfd;" horiz-adv-x="868" />
<glyph unicode="&#xfe;" horiz-adv-x="1010" />
<glyph unicode="&#xff;" horiz-adv-x="868" />
<glyph unicode="&#x2c6;" horiz-adv-x="1024" />
<glyph unicode="&#x2dc;" horiz-adv-x="1024" />
<glyph unicode="&#x2000;" horiz-adv-x="909" />
<glyph unicode="&#x2001;" horiz-adv-x="1819" />
<glyph unicode="&#x2002;" horiz-adv-x="909" />
<glyph unicode="&#x2003;" horiz-adv-x="1819" />
<glyph unicode="&#x2004;" horiz-adv-x="606" />
<glyph unicode="&#x2005;" horiz-adv-x="454" />
<glyph unicode="&#x2006;" horiz-adv-x="303" />
<glyph unicode="&#x2007;" horiz-adv-x="303" />
<glyph unicode="&#x2008;" horiz-adv-x="227" />
<glyph unicode="&#x2009;" horiz-adv-x="363" />
<glyph unicode="&#x200a;" horiz-adv-x="101" />
<glyph unicode="&#x2010;" horiz-adv-x="1097" />
<glyph unicode="&#x2011;" horiz-adv-x="1097" />
<glyph unicode="&#x2012;" horiz-adv-x="1097" />
<glyph unicode="&#x2013;" horiz-adv-x="1108" />
<glyph unicode="&#x2014;" horiz-adv-x="2048" />
<glyph unicode="&#x2018;" horiz-adv-x="557" />
<glyph unicode="&#x2019;" horiz-adv-x="557" />
<glyph unicode="&#x201a;" horiz-adv-x="557" />
<glyph unicode="&#x201c;" horiz-adv-x="910" />
<glyph unicode="&#x201d;" horiz-adv-x="910" />
<glyph unicode="&#x201e;" horiz-adv-x="910" />
<glyph unicode="&#x2022;" horiz-adv-x="1024" />
<glyph unicode="&#x2026;" horiz-adv-x="2048" />
<glyph unicode="&#x202f;" horiz-adv-x="363" />
<glyph unicode="&#x2039;" horiz-adv-x="631" />
<glyph unicode="&#x203a;" horiz-adv-x="631" />
<glyph unicode="&#x205f;" horiz-adv-x="454" />
<glyph unicode="&#x20ac;" horiz-adv-x="1968" />
<glyph unicode="&#x2122;" horiz-adv-x="1497" />
<glyph unicode="&#x25fc;" horiz-adv-x="1435" d="M0 0v1435h1435v-1435h-1435z" />
</font>
</defs>
</svg>
